<?xml version="1.0" standalone="no"?>
<!DOCTYPE svg PUBLIC "-//W3C//DTD SVG 20010904//EN"
 "http://www.w3.org/TR/2001/REC-SVG-20010904/DTD/svg10.dtd">
<svg version="1.0" xmlns="http://www.w3.org/2000/svg"
 width="230.000000pt" height="230.000000pt" viewBox="0 0 230.000000 230.000000"
 preserveAspectRatio="xMidYMid meet">

<g transform="translate(0.000000,230.000000) scale(0.100000,-0.100000)"
fill="#000000" stroke="none">
<path d="M0 1150 l0 -1150 1150 0 1150 0 0 1150 0 1150 -1150 0 -1150 0 0
-1150z m1490 711 l315 -89 -1 -378 c-1 -215 -5 -392 -11 -409 l-9 -30 -200 -6
c-172 -4 -208 -8 -264 -28 -77 -27 -129 -56 -199 -111 l-51 -40 0 -75 c0 -41
4 -75 8 -75 4 0 30 23 57 51 63 66 120 104 202 136 62 24 84 27 237 31 193 5
182 12 123 -86 -67 -113 -171 -191 -514 -388 -38 -21 -6 -35 -253 110 -171
100 -272 186 -327 278 -58 97 -79 88 206 88 l251 0 0 55 0 55 -272 2 -272 3
-9 30 c-6 17 -11 190 -11 409 l-1 379 160 44 c88 25 228 64 310 88 83 24 164
43 180 44 17 0 172 -39 345 -88z"/>
<path d="M752 1628 c3 -7 44 -131 93 -276 l87 -263 50 3 50 3 56 177 c31 98
59 178 62 178 3 0 31 -81 63 -180 l58 -180 48 0 c57 0 41 -32 147 290 42 129
79 241 82 248 3 9 -13 12 -61 12 l-65 0 -15 -47 c-9 -27 -29 -97 -47 -158 -17
-60 -34 -117 -37 -125 -3 -8 -25 44 -49 115 -78 232 -68 215 -124 215 l-48 0
-51 -152 c-28 -84 -55 -162 -60 -173 -8 -21 -6 -27 -87 240 l-25 85 -66 0
c-48 0 -64 -3 -61 -12z"/>
</g>
</svg>
